<svg xmlns="http://www.w3.org/2000/svg" xmlns:xlink="http://www.w3.org/1999/xlink" width="534" zoomAndPan="magnify" viewBox="0 0 400.5 87.749997" height="117" preserveAspectRatio="xMidYMid meet" version="1.2"><defs><clipPath id="dee853c3d5"><path d="M 0.320312 27 L 22 27 L 22 72 L 0.320312 72 Z M 0.320312 27 "/></clipPath><clipPath id="02c3ac7c38"><path d="M 23 22 L 45 22 L 45 79.574219 L 23 79.574219 Z M 23 22 "/></clipPath><clipPath id="b89d90719b"><path d="M 46 9.273438 L 68 9.273438 L 68 72 L 46 72 Z M 46 9.273438 "/></clipPath></defs><g id="3dc77d09d2"><g style="fill:#ffffff;fill-opacity:1;"><g transform="translate(75.526233, 56.398315)"><path style="stroke:none" d="M 12.640625 -27.296875 C 15.515625 -27.296875 18.023438 -26.722656 20.171875 -25.578125 C 22.328125 -24.441406 23.992188 -22.84375 25.171875 -20.78125 C 26.359375 -18.71875 26.953125 -16.34375 26.953125 -13.65625 C 26.953125 -10.976562 26.359375 -8.601562 25.171875 -6.53125 C 23.992188 -4.457031 22.320312 -2.847656 20.15625 -1.703125 C 18 -0.566406 15.492188 0 12.640625 0 L 2.40625 0 L 2.40625 -27.296875 Z M 12.21875 -5.75 C 14.726562 -5.75 16.679688 -6.4375 18.078125 -7.8125 C 19.484375 -9.1875 20.1875 -11.132812 20.1875 -13.65625 C 20.1875 -16.164062 19.484375 -18.117188 18.078125 -19.515625 C 16.679688 -20.921875 14.726562 -21.625 12.21875 -21.625 L 9.0625 -21.625 L 9.0625 -5.75 Z M 12.21875 -5.75 "/></g></g><g style="fill:#ffffff;fill-opacity:1;"><g transform="translate(103.798705, 56.398315)"><path style="stroke:none" d="M 22.875 -11.203125 C 22.875 -10.578125 22.832031 -9.925781 22.75 -9.25 L 7.703125 -9.25 C 7.804688 -7.90625 8.238281 -6.875 9 -6.15625 C 9.769531 -5.445312 10.710938 -5.09375 11.828125 -5.09375 C 13.484375 -5.09375 14.632812 -5.789062 15.28125 -7.1875 L 22.359375 -7.1875 C 21.992188 -5.769531 21.335938 -4.488281 20.390625 -3.34375 C 19.453125 -2.207031 18.269531 -1.3125 16.84375 -0.65625 C 15.414062 -0.0078125 13.820312 0.3125 12.0625 0.3125 C 9.925781 0.3125 8.03125 -0.140625 6.375 -1.046875 C 4.71875 -1.953125 3.421875 -3.25 2.484375 -4.9375 C 1.554688 -6.625 1.09375 -8.59375 1.09375 -10.84375 C 1.09375 -13.101562 1.550781 -15.078125 2.46875 -16.765625 C 3.382812 -18.453125 4.671875 -19.75 6.328125 -20.65625 C 7.992188 -21.5625 9.90625 -22.015625 12.0625 -22.015625 C 14.15625 -22.015625 16.019531 -21.570312 17.65625 -20.6875 C 19.289062 -19.8125 20.566406 -18.554688 21.484375 -16.921875 C 22.410156 -15.285156 22.875 -13.378906 22.875 -11.203125 Z M 16.0625 -12.953125 C 16.0625 -14.085938 15.671875 -14.992188 14.890625 -15.671875 C 14.117188 -16.347656 13.148438 -16.6875 11.984375 -16.6875 C 10.867188 -16.6875 9.925781 -16.359375 9.15625 -15.703125 C 8.394531 -15.054688 7.921875 -14.140625 7.734375 -12.953125 Z M 16.0625 -12.953125 "/></g></g><g style="fill:#ffffff;fill-opacity:1;"><g transform="translate(127.754474, 56.398315)"><path style="stroke:none" d="M 33.5625 -21.703125 L 27.6875 0 L 20.34375 0 L 16.921875 -14.078125 L 13.375 0 L 6.0625 0 L 0.15625 -21.703125 L 6.8125 -21.703125 L 9.875 -6.1875 L 13.53125 -21.703125 L 20.578125 -21.703125 L 24.265625 -6.265625 L 27.296875 -21.703125 Z M 33.5625 -21.703125 "/></g></g><g style="fill:#ffffff;fill-opacity:1;"><g transform="translate(161.432555, 56.398315)"><path style="stroke:none" d="M 1.09375 -10.890625 C 1.09375 -13.117188 1.507812 -15.078125 2.34375 -16.765625 C 3.1875 -18.453125 4.332031 -19.75 5.78125 -20.65625 C 7.238281 -21.5625 8.863281 -22.015625 10.65625 -22.015625 C 12.1875 -22.015625 13.523438 -21.703125 14.671875 -21.078125 C 15.828125 -20.453125 16.71875 -19.632812 17.34375 -18.625 L 17.34375 -21.703125 L 24 -21.703125 L 24 0 L 17.34375 0 L 17.34375 -3.078125 C 16.695312 -2.066406 15.796875 -1.25 14.640625 -0.625 C 13.484375 0 12.140625 0.3125 10.609375 0.3125 C 8.847656 0.3125 7.238281 -0.144531 5.78125 -1.0625 C 4.332031 -1.988281 3.1875 -3.300781 2.34375 -5 C 1.507812 -6.695312 1.09375 -8.660156 1.09375 -10.890625 Z M 17.34375 -10.84375 C 17.34375 -12.507812 16.878906 -13.820312 15.953125 -14.78125 C 15.035156 -15.738281 13.914062 -16.21875 12.59375 -16.21875 C 11.269531 -16.21875 10.148438 -15.742188 9.234375 -14.796875 C 8.316406 -13.847656 7.859375 -12.546875 7.859375 -10.890625 C 7.859375 -9.234375 8.316406 -7.914062 9.234375 -6.9375 C 10.148438 -5.96875 11.269531 -5.484375 12.59375 -5.484375 C 13.914062 -5.484375 15.035156 -5.960938 15.953125 -6.921875 C 16.878906 -7.878906 17.34375 -9.1875 17.34375 -10.84375 Z M 17.34375 -10.84375 "/></g></g><g style="fill:#ffffff;fill-opacity:1;"><g transform="translate(187.838345, 56.398315)"><path style="stroke:none" d="M 9.0625 -5.140625 L 17.765625 -5.140625 L 17.765625 0 L 2.40625 0 L 2.40625 -27.296875 L 9.0625 -27.296875 Z M 9.0625 -5.140625 "/></g></g><g style="fill:#ffffff;fill-opacity:1;"><g transform="translate(206.388506, 56.398315)"><path style="stroke:none" d="M 22.875 -11.203125 C 22.875 -10.578125 22.832031 -9.925781 22.75 -9.25 L 7.703125 -9.25 C 7.804688 -7.90625 8.238281 -6.875 9 -6.15625 C 9.769531 -5.445312 10.710938 -5.09375 11.828125 -5.09375 C 13.484375 -5.09375 14.632812 -5.789062 15.28125 -7.1875 L 22.359375 -7.1875 C 21.992188 -5.769531 21.335938 -4.488281 20.390625 -3.34375 C 19.453125 -2.207031 18.269531 -1.3125 16.84375 -0.65625 C 15.414062 -0.0078125 13.820312 0.3125 12.0625 0.3125 C 9.925781 0.3125 8.03125 -0.140625 6.375 -1.046875 C 4.71875 -1.953125 3.421875 -3.25 2.484375 -4.9375 C 1.554688 -6.625 1.09375 -8.59375 1.09375 -10.84375 C 1.09375 -13.101562 1.550781 -15.078125 2.46875 -16.765625 C 3.382812 -18.453125 4.671875 -19.75 6.328125 -20.65625 C 7.992188 -21.5625 9.90625 -22.015625 12.0625 -22.015625 C 14.15625 -22.015625 16.019531 -21.570312 17.65625 -20.6875 C 19.289062 -19.8125 20.566406 -18.554688 21.484375 -16.921875 C 22.410156 -15.285156 22.875 -13.378906 22.875 -11.203125 Z M 16.0625 -12.953125 C 16.0625 -14.085938 15.671875 -14.992188 14.890625 -15.671875 C 14.117188 -16.347656 13.148438 -16.6875 11.984375 -16.6875 C 10.867188 -16.6875 9.925781 -16.359375 9.15625 -15.703125 C 8.394531 -15.054688 7.921875 -14.140625 7.734375 -12.953125 Z M 16.0625 -12.953125 "/></g></g><g style="fill:#ffffff;fill-opacity:1;"><g transform="translate(230.344275, 56.398315)"><path style="stroke:none" d="M 1.09375 -10.890625 C 1.09375 -13.117188 1.507812 -15.078125 2.34375 -16.765625 C 3.1875 -18.453125 4.332031 -19.75 5.78125 -20.65625 C 7.238281 -21.5625 8.863281 -22.015625 10.65625 -22.015625 C 12.1875 -22.015625 13.523438 -21.703125 14.671875 -21.078125 C 15.828125 -20.453125 16.71875 -19.632812 17.34375 -18.625 L 17.34375 -21.703125 L 24 -21.703125 L 24 0 L 17.34375 0 L 17.34375 -3.078125 C 16.695312 -2.066406 15.796875 -1.25 14.640625 -0.625 C 13.484375 0 12.140625 0.3125 10.609375 0.3125 C 8.847656 0.3125 7.238281 -0.144531 5.78125 -1.0625 C 4.332031 -1.988281 3.1875 -3.300781 2.34375 -5 C 1.507812 -6.695312 1.09375 -8.660156 1.09375 -10.890625 Z M 17.34375 -10.84375 C 17.34375 -12.507812 16.878906 -13.820312 15.953125 -14.78125 C 15.035156 -15.738281 13.914062 -16.21875 12.59375 -16.21875 C 11.269531 -16.21875 10.148438 -15.742188 9.234375 -14.796875 C 8.316406 -13.847656 7.859375 -12.546875 7.859375 -10.890625 C 7.859375 -9.234375 8.316406 -7.914062 9.234375 -6.9375 C 10.148438 -5.96875 11.269531 -5.484375 12.59375 -5.484375 C 13.914062 -5.484375 15.035156 -5.960938 15.953125 -6.921875 C 16.878906 -7.878906 17.34375 -9.1875 17.34375 -10.84375 Z M 17.34375 -10.84375 "/></g></g><g style="fill:#ffffff;fill-opacity:1;"><g transform="translate(256.750064, 56.398315)"><path style="stroke:none" d="M 9.0625 -18.078125 C 9.84375 -19.273438 10.816406 -20.21875 11.984375 -20.90625 C 13.148438 -21.59375 14.445312 -21.9375 15.875 -21.9375 L 15.875 -14.890625 L 14.046875 -14.890625 C 12.378906 -14.890625 11.128906 -14.53125 10.296875 -13.8125 C 9.472656 -13.101562 9.0625 -11.859375 9.0625 -10.078125 L 9.0625 0 L 2.40625 0 L 2.40625 -21.703125 L 9.0625 -21.703125 Z M 9.0625 -18.078125 "/></g></g><g style="fill:#ffffff;fill-opacity:1;"><g transform="translate(273.394663, 56.398315)"><path style="stroke:none" d="M 15.640625 -21.9375 C 18.171875 -21.9375 20.195312 -21.113281 21.71875 -19.46875 C 23.238281 -17.820312 24 -15.554688 24 -12.671875 L 24 0 L 17.390625 0 L 17.390625 -11.78125 C 17.390625 -13.238281 17.007812 -14.367188 16.25 -15.171875 C 15.5 -15.972656 14.488281 -16.375 13.21875 -16.375 C 11.945312 -16.375 10.9375 -15.972656 10.1875 -15.171875 C 9.4375 -14.367188 9.0625 -13.238281 9.0625 -11.78125 L 9.0625 0 L 2.40625 0 L 2.40625 -21.703125 L 9.0625 -21.703125 L 9.0625 -18.828125 C 9.738281 -19.785156 10.644531 -20.539062 11.78125 -21.09375 C 12.925781 -21.65625 14.210938 -21.9375 15.640625 -21.9375 Z M 15.640625 -21.9375 "/></g></g><g style="fill:#ffffff;fill-opacity:1;"><g transform="translate(299.60601, 56.398315)"><path style="stroke:none" d="M 5.75 -23.953125 C 4.582031 -23.953125 3.628906 -24.296875 2.890625 -24.984375 C 2.148438 -25.671875 1.78125 -26.519531 1.78125 -27.53125 C 1.78125 -28.570312 2.148438 -29.4375 2.890625 -30.125 C 3.628906 -30.8125 4.582031 -31.15625 5.75 -31.15625 C 6.894531 -31.15625 7.835938 -30.8125 8.578125 -30.125 C 9.316406 -29.4375 9.6875 -28.570312 9.6875 -27.53125 C 9.6875 -26.519531 9.316406 -25.671875 8.578125 -24.984375 C 7.835938 -24.296875 6.894531 -23.953125 5.75 -23.953125 Z M 9.0625 -21.703125 L 9.0625 0 L 2.40625 0 L 2.40625 -21.703125 Z M 9.0625 -21.703125 "/></g></g><g style="fill:#ffffff;fill-opacity:1;"><g transform="translate(311.078345, 56.398315)"><path style="stroke:none" d="M 15.640625 -21.9375 C 18.171875 -21.9375 20.195312 -21.113281 21.71875 -19.46875 C 23.238281 -17.820312 24 -15.554688 24 -12.671875 L 24 0 L 17.390625 0 L 17.390625 -11.78125 C 17.390625 -13.238281 17.007812 -14.367188 16.25 -15.171875 C 15.5 -15.972656 14.488281 -16.375 13.21875 -16.375 C 11.945312 -16.375 10.9375 -15.972656 10.1875 -15.171875 C 9.4375 -14.367188 9.0625 -13.238281 9.0625 -11.78125 L 9.0625 0 L 2.40625 0 L 2.40625 -21.703125 L 9.0625 -21.703125 L 9.0625 -18.828125 C 9.738281 -19.785156 10.644531 -20.539062 11.78125 -21.09375 C 12.925781 -21.65625 14.210938 -21.9375 15.640625 -21.9375 Z M 15.640625 -21.9375 "/></g></g><g style="fill:#ffffff;fill-opacity:1;"><g transform="translate(337.289693, 56.398315)"><path style="stroke:none" d="M 10.65625 -22.015625 C 12.1875 -22.015625 13.523438 -21.703125 14.671875 -21.078125 C 15.828125 -20.453125 16.71875 -19.632812 17.34375 -18.625 L 17.34375 -21.703125 L 24 -21.703125 L 24 -0.03125 C 24 1.957031 23.601562 3.757812 22.8125 5.375 C 22.019531 7 20.8125 8.289062 19.1875 9.25 C 17.570312 10.207031 15.554688 10.6875 13.140625 10.6875 C 9.929688 10.6875 7.328125 9.925781 5.328125 8.40625 C 3.328125 6.894531 2.1875 4.84375 1.90625 2.25 L 8.484375 2.25 C 8.691406 3.082031 9.179688 3.738281 9.953125 4.21875 C 10.734375 4.695312 11.691406 4.9375 12.828125 4.9375 C 14.203125 4.9375 15.296875 4.539062 16.109375 3.75 C 16.929688 2.957031 17.34375 1.695312 17.34375 -0.03125 L 17.34375 -3.109375 C 16.695312 -2.097656 15.800781 -1.273438 14.65625 -0.640625 C 13.519531 -0.00390625 12.1875 0.3125 10.65625 0.3125 C 8.863281 0.3125 7.238281 -0.144531 5.78125 -1.0625 C 4.332031 -1.988281 3.1875 -3.300781 2.34375 -5 C 1.507812 -6.695312 1.09375 -8.660156 1.09375 -10.890625 C 1.09375 -13.117188 1.507812 -15.078125 2.34375 -16.765625 C 3.1875 -18.453125 4.332031 -19.75 5.78125 -20.65625 C 7.238281 -21.5625 8.863281 -22.015625 10.65625 -22.015625 Z M 17.34375 -10.84375 C 17.34375 -12.507812 16.878906 -13.820312 15.953125 -14.78125 C 15.035156 -15.738281 13.914062 -16.21875 12.59375 -16.21875 C 11.269531 -16.21875 10.148438 -15.742188 9.234375 -14.796875 C 8.316406 -13.847656 7.859375 -12.546875 7.859375 -10.890625 C 7.859375 -9.234375 8.316406 -7.914062 9.234375 -6.9375 C 10.148438 -5.96875 11.269531 -5.484375 12.59375 -5.484375 C 13.914062 -5.484375 15.035156 -5.960938 15.953125 -6.921875 C 16.878906 -7.878906 17.34375 -9.1875 17.34375 -10.84375 Z M 17.34375 -10.84375 "/></g></g><g clip-rule="nonzero" clip-path="url(#dee853c3d5)"><path style=" stroke:none;fill-rule:nonzero;fill:#8c52ff;fill-opacity:1;" d="M 18.308594 37.261719 C 17.890625 36.914062 4.789062 28.285156 3.5 27.601562 C 1.878906 26.738281 0.496094 27.667969 0.386719 29.558594 C 0.359375 30 0.5 51.078125 0.507812 52.5 C 0.332031 55.277344 1.164062 57.6875 3.128906 59.683594 C 4.078125 60.660156 21.570312 71.664062 21.585938 71.628906 C 21.875 71.367188 21.984375 48.203125 21.789062 46.902344 C 22.289062 43.089844 21.34375 39.796875 18.308594 37.261719 Z M 18.308594 37.261719 "/></g><g clip-rule="nonzero" clip-path="url(#02c3ac7c38)"><path style=" stroke:none;fill-rule:nonzero;fill:#5e17eb;fill-opacity:1;" d="M 44.808594 70.691406 C 44.835938 67.074219 44.890625 39.382812 44.875 39.101562 C 44.75 35.964844 43.472656 33.367188 40.875 31.632812 C 36.394531 28.644531 26.53125 22.507812 26.203125 22.378906 C 25.824219 22.210938 25.464844 22.136719 25.128906 22.152344 C 24.828125 22.15625 24.5625 22.234375 24.335938 22.382812 C 23.738281 22.730469 23.339844 23.449219 23.28125 24.425781 C 23.261719 24.792969 23.335938 70.222656 23.316406 71.945312 C 23.308594 72.636719 23.457031 73.050781 24.148438 73.457031 C 26.8125 75.023438 29.429688 76.675781 32.003906 78.382812 C 33.515625 79.382812 34.890625 79.359375 36.378906 78.378906 C 38.597656 76.914062 40.808594 75.414062 43.136719 74.140625 C 44.636719 73.316406 45.246094 72.324219 44.808594 70.691406 Z M 44.808594 70.691406 "/></g><g clip-rule="nonzero" clip-path="url(#b89d90719b)"><path style=" stroke:none;fill-rule:nonzero;fill:#1800ad;fill-opacity:1;" d="M 67.902344 27.914062 C 67.941406 27.332031 67.941406 26.761719 67.902344 26.207031 C 67.902344 26.167969 67.902344 26.132812 67.902344 26.09375 C 67.699219 22.621094 66.050781 19.992188 63.1875 18.101562 C 60.023438 16.015625 56.882812 13.886719 53.636719 11.925781 C 52.308594 11.125 51.03125 10.210938 49.546875 9.652344 C 49.539062 9.648438 49.527344 9.640625 49.519531 9.636719 C 49.066406 9.394531 48.636719 9.300781 48.242188 9.320312 C 47.609375 9.28125 47.167969 9.507812 46.902344 10.058594 C 46.621094 10.445312 46.441406 10.964844 46.40625 11.59375 C 46.394531 11.761719 46.644531 67.785156 46.589844 71.523438 C 46.894531 71.992188 47.210938 71.683594 47.484375 71.507812 C 51.707031 68.789062 55.925781 66.0625 60.144531 63.335938 C 64.203125 61.328125 67.46875 58.632812 67.875 53.738281 C 68.039062 51.753906 67.902344 29.945312 67.902344 27.914062 Z M 67.902344 27.914062 "/></g></g></svg>